<svg width="1400" height="649" viewBox="0 0 1400 649" fill="none" xmlns="http://www.w3.org/2000/svg">
<g opacity="0.03">
<path d="M290.034 653.649C243.727 634.26 226.139 586.73 256.406 559.598C318.675 503.764 575.029 531.345 587.091 569.191C598.973 606.478 386.662 694.118 290.034 653.649Z" stroke="#2E2D2B" stroke-width="2" stroke-miterlimit="10"/>
<path d="M404.777 777.835C510.551 814.886 688.157 551.092 614.846 488.813C569.772 450.518 460.657 455.304 371.674 467.889C288.14 479.702 168.78 528.005 139.332 608.226C123.739 650.813 133.099 711.489 166.123 732.738C191.681 749.179 226.184 741.782 233.795 744.516C270.081 729.465 275.406 723.615 304.316 720.085C342.103 715.467 375.687 767.648 404.777 777.835Z" stroke="#2E2D2B" stroke-width="2" stroke-miterlimit="10"/>
<path d="M512.098 907.581C634.944 887.968 768.44 502.665 635.18 413.994C550.311 357.521 402.355 382.457 299.226 412.313C204.494 439.737 46.7511 531.255 14.8372 662.413C-3.71477 738.622 18.8279 845.83 83.4179 876.84C134.904 901.552 201.243 880.303 212.923 878.667C281.963 841.526 287.546 822.631 338.953 809.91C407.018 793.088 460.758 915.818 512.098 907.581Z" stroke="#2E2D2B" stroke-width="2" stroke-miterlimit="10"/>
<path d="M611.64 1036.46C747.277 1000.31 840.944 453.69 647.735 338.323C523.038 263.874 336.196 308.534 218.999 355.885C112.978 398.707 -82.485 533.463 -117.437 715.747C-138.522 825.679 -103.335 979.184 -7.07767 1020.09C70.269 1052.97 169.049 1019.23 184.249 1011.96C290.516 961.163 291.862 920.794 365.845 898.884C464.12 869.701 540.604 1055.36 611.64 1036.46Z" stroke="#2E2D2B" stroke-width="2" stroke-miterlimit="10"/>
<path d="M705.196 1159.48C855.405 1107.33 907.216 399.402 654.304 256.78C489.611 164.735 263.961 228.627 132.797 293.573C15.3641 351.704 -217.573 529.686 -255.742 763.221C-279.203 906.774 -231.529 1106.63 -103.593 1157.5C-0.340645 1198.52 130.095 1150.41 149.566 1139.44C286.548 1062.24 290.091 1012.93 386.628 981.986C515.136 940.441 615.283 1190.7 705.196 1159.48Z" stroke="#2E2D2B" stroke-width="2" stroke-miterlimit="10"/>
<path d="M-204.312 1293.28C-75.1988 1342.42 86.8145 1280.01 110.68 1265.26C278.007 1161.84 284.194 1103.8 403.252 1063.53C562.014 1009.84 686.419 1325.33 794.469 1280.95C960.439 1212.78 969.755 342.638 656.59 173.678C452.249 63.4331 187.354 147.084 42.3009 229.714C-86.5205 303.088 -356.763 524.295 -398.239 809.126C-424.021 986.289 -363.948 1232.52 -204.312 1293.28Z" stroke="#2E2D2B" stroke-width="2" stroke-miterlimit="10"/>
<path d="M1192.82 1382.93C1141.96 1383.36 1080.97 1471.55 1126.58 1486.28C1152.92 1494.79 1222.67 1481.32 1250.06 1457.35C1288.65 1423.62 1227.81 1382.63 1192.82 1382.93Z" stroke="#2E2D2B" stroke-width="2" stroke-miterlimit="10"/>
<path d="M1054.6 1473.93C1059.58 1485.76 1082.88 1491.02 1104.15 1505.43C1147.28 1534.68 1153.47 1548.58 1184.11 1566.22C1196.06 1573.11 1212.13 1582.16 1227.82 1578.02C1251.86 1571.66 1257.85 1544.16 1288.36 1495.72C1327.9 1432.78 1342.88 1416.51 1331.58 1383.16C1328.95 1375.4 1325.54 1350.29 1306.49 1334.97C1280.12 1313.79 1249.2 1330.15 1210.55 1316.13C1164.13 1299.32 1141.12 1269.39 1120.97 1282.62C1106.78 1291.93 1106.25 1317.44 1095.63 1361.85C1087.53 1395.69 1082.45 1417.89 1072.6 1436C1060.8 1457.56 1049.06 1460.77 1054.6 1473.93Z" stroke="#2E2D2B" stroke-width="2" stroke-miterlimit="10"/>
<path d="M976.862 1449.26C977.725 1470.24 1010.68 1480.39 1037.84 1510.71C1093.54 1572.9 1067.74 1617.33 1112.39 1662.77C1131.33 1682.05 1161.06 1700.74 1190.85 1697.12C1233.14 1691.97 1247.34 1648.3 1312.43 1559.75C1397.54 1443.98 1433.79 1421.31 1425.84 1359.61C1424.22 1347.04 1422.64 1298.76 1389.38 1269.7C1345.02 1230.94 1291.85 1266.2 1222.41 1237.07C1144.82 1204.57 1115.82 1135.09 1089.65 1149.47C1071.48 1159.45 1078.44 1199.66 1064.48 1278.09C1054.59 1333.84 1048.48 1366.41 1028.72 1393.1C1003.78 1426.75 975.931 1426.47 976.862 1449.26Z" stroke="#2E2D2B" stroke-width="2" stroke-miterlimit="10"/>
<path d="M899.044 1424.86C895.681 1454.93 938.356 1470.05 971.459 1516.27C1039.61 1611.41 980.852 1685.79 1040.59 1759.6C1066.16 1791.18 1110.01 1819.43 1153.81 1816.48C1214.51 1812.4 1236.94 1752.89 1336.52 1624.05C1467.45 1455.69 1523.84 1426.05 1520.14 1336.33C1519.41 1318.84 1519.75 1247.52 1472.3 1204.66C1409.95 1148.37 1334.42 1202.59 1234.31 1158.26C1125.47 1110.07 1090.58 1001.06 1058.32 1016.55C1036.18 1027.26 1050.36 1082.13 1033.31 1194.57C1021.54 1272.23 1014.45 1315.03 984.809 1350.44C946.607 1396.08 902.642 1392.47 899.044 1424.86Z" stroke="#2E2D2B" stroke-width="2" stroke-miterlimit="10"/>
<path d="M821.047 1400.53C813.503 1439.65 865.774 1459.79 904.896 1521.88C985.359 1650.05 893.518 1754.06 968.623 1856.48C1000.73 1900.3 1058.82 1938.14 1116.59 1935.92C1195.75 1932.87 1226.05 1857.32 1360.39 1688.4C1536.73 1467.17 1613.47 1430.63 1614.15 1313.11C1614.29 1290.7 1616.51 1196.4 1554.92 1139.69C1474.5 1065.93 1376.76 1139.08 1245.93 1079.51C1105.81 1015.7 1065.04 867.056 1026.81 883.687C1000.69 895.096 1022.1 964.67 1001.97 1111.11C988.284 1210.69 980.247 1263.66 940.733 1307.85C889.236 1365.41 829.163 1358.46 821.047 1400.53Z" stroke="#2E2D2B" stroke-width="2" stroke-miterlimit="10"/>
<path d="M742.905 1376.21C755.538 1324.43 831.697 1334.74 896.477 1265.26C945.878 1212.28 954.857 1149.17 970.461 1027.67C993.631 847.23 965.024 762.941 995.122 750.849C1039.37 733.063 1086.01 921.343 1257.43 1000.77C1418.91 1075.59 1539.08 983.353 1637.44 1074.74C1713.26 1145.2 1709.04 1262.47 1708.06 1289.91C1702.83 1435.2 1605.86 1478.67 1384.1 1752.77C1215 1961.77 1176.86 2053.34 1079.19 2055.37C1007.45 2056.86 935.094 2009.42 896.477 1953.38C806.049 1822.26 931.149 1688.54 838.187 1527.51C793.135 1449.47 731.146 1424.38 742.905 1376.21Z" stroke="#2E2D2B" stroke-width="2" stroke-miterlimit="10"/>
<path d="M1389.2 542.843C1375.93 549.567 1348.06 536.612 1345.59 516.428C1342.8 493.531 1374.33 474.591 1388.19 480.475C1404.58 487.446 1406.81 533.945 1389.2 542.843Z" stroke="#2E2D2B" stroke-width="2" stroke-miterlimit="10"/>
<path d="M1426.59 421.189C1449.21 442.337 1459.1 481.148 1470.41 547.673C1481.62 613.639 1479.86 660.866 1470.01 664.296C1464.64 666.145 1449.43 651.676 1436.38 641.074C1411.95 621.282 1370.14 623.479 1359.42 621.338C1320.19 613.493 1308.67 598.924 1292.27 571.018C1284.68 558.13 1266.98 529.551 1259.19 495.93C1247.31 445.016 1194.05 429.326 1200.54 408.917C1206 391.882 1258.76 387.747 1292.97 387.265C1342.01 386.57 1391.62 388.531 1426.59 421.189Z" stroke="#2E2D2B" stroke-width="2" stroke-miterlimit="10"/>
<path d="M1465.8 364.335C1502.99 402.126 1517.62 465.547 1540.15 584.153C1563.04 703.33 1562.89 785.075 1551.61 788.124C1543.15 790.455 1515.74 760.991 1492.45 739.933C1448.54 700.069 1369.94 706.625 1353.74 704.07C1279.87 692.661 1261.67 665.327 1233.04 613.661C1221.11 592.144 1188.39 539.694 1173.48 477.752C1150.53 382.86 1041.74 358.014 1050.74 322.835C1058.27 293.539 1159.15 289.045 1222.63 291.455C1312.27 294.94 1402.97 300.454 1465.8 364.335Z" stroke="#2E2D2B" stroke-width="2" stroke-miterlimit="10"/>
<path d="M1504.8 307.851C1556.58 362.273 1575.78 450.35 1609.66 621.002C1644.06 793.425 1645.66 909.498 1633 912.389C1621.39 915.079 1581.81 870.698 1548.34 839.128C1485.06 779.091 1369.57 790.13 1347.88 787.238C1239.39 772.758 1214.41 732.267 1173.62 656.731C1157.35 626.594 1109.63 550.262 1087.58 460.033C1053.6 321.154 889.269 287.173 900.759 237.212C910.355 195.656 1059.39 190.624 1152.11 196.126C1282.32 203.467 1414.26 212.679 1504.8 307.851Z" stroke="#2E2D2B" stroke-width="2" stroke-miterlimit="10"/>
<path d="M1543.68 251.4C1610.08 322.454 1633.84 435.198 1679.06 657.896C1725.02 883.542 1728.38 1033.91 1714.28 1036.7C1699.53 1039.65 1647.75 980.529 1604.12 938.423C1521.35 858.348 1369.1 873.758 1341.92 870.452C1198.81 853.092 1166.85 799.342 1114.1 699.856C1093.41 661.124 1030.76 560.887 1001.59 442.359C956.55 259.503 736.672 216.378 750.684 151.634C762.331 97.8393 959.509 92.471 1081.49 100.832C1252.23 112.341 1425.47 124.905 1543.68 251.4Z" stroke="#2E2D2B" stroke-width="2" stroke-miterlimit="10"/>
<path d="M1335.9 953.699C1158.19 933.526 1119.55 866.282 1054.53 743.003C1029.54 695.608 951.83 571.533 915.534 424.719C859.485 197.863 584.03 145.604 600.542 66.0894C614.263 -0.0330582 859.575 -5.63663 1010.82 5.57056C1222.14 21.2606 1436.66 37.1524 1582.51 194.972C1663.54 282.668 1691.84 420.046 1748.41 694.812C1805.84 973.692 1810.96 1158.32 1795.49 1161.03C1777.56 1164.17 1713.66 1090.43 1659.85 1037.75C1557.58 937.65 1368.58 957.408 1335.9 953.699Z" stroke="#2E2D2B" stroke-width="2" stroke-miterlimit="10"/>
<path d="M-109.029 1492.76C-88.8521 1415.43 55.9767 1451.76 228.381 1277.59C290.158 1215.17 331.578 1149.89 413.341 1139.74C421.591 1138.72 503.5 1129.76 561.308 1182.33C634.037 1248.45 589.646 1340.18 674.526 1468.11C705.79 1515.23 710.991 1501.55 733.937 1538.71C831.865 1697.35 682.507 1858.4 768.687 2019.5C808.358 2093.66 867.332 2110.68 861.727 2120.37C837.537 2161.91 -163.553 1701.14 -109.029 1492.76Z" stroke="#2E2D2B" stroke-width="2" stroke-miterlimit="10"/>
<path d="M435.76 1245.46C440.715 1246.13 494.723 1242.09 531.771 1279.26C578.616 1326.18 545.222 1390.79 598.894 1478.02C618.646 1510.14 621.392 1501.43 635.449 1526.83C695.421 1635.25 587.786 1744.32 640.493 1850.45C664.886 1899.59 703.391 1910.85 697.663 1915.65C671.757 1937.52 10.9811 1614.34 62.8819 1473.71C82.3418 1420.97 188.576 1439.69 310.133 1326.09C354.333 1284.81 384.263 1238.47 435.76 1245.46Z" stroke="#2E2D2B" stroke-width="2" stroke-miterlimit="10"/>
<path d="M458.179 1351.18C459.592 1354.74 486.002 1354.66 502.233 1376.19C523.308 1404.12 500.866 1441.32 523.263 1487.91C531.479 1505.01 531.816 1501.36 536.972 1514.95C559.111 1573.42 492.974 1630.18 512.311 1681.41C521.357 1705.53 538.171 1709.65 533.688 1710.93C500.911 1706.28 186.188 1527.23 234.737 1454.66C253.693 1426.31 321.545 1427.66 391.829 1374.6C418.542 1354.42 436.029 1339.65 458.179 1351.18Z" stroke="#2E2D2B" stroke-width="2" stroke-miterlimit="10"/>
<path d="M480.599 1456.9C463.201 1507.73 394.71 1525.01 369.623 1506.21C332.631 1478.46 364.186 1442.33 406.615 1435.61C438.327 1430.62 500.507 1398.74 480.599 1456.9Z" stroke="#2E2D2B" stroke-width="2" stroke-miterlimit="10"/>
</g>
</svg>
